<svg width="110" height="32" viewBox="0 0 110 32" fill="none" xmlns="http://www.w3.org/2000/svg">
<path d="M39.2881 15.2738C40.6174 15.2738 41.6876 15.677 42.4985 16.4835C43.3227 17.29 43.7348 18.4862 43.7348 20.0723V26.2822H40.6241V20.5562C40.6241 19.696 40.438 19.0575 40.0658 18.6408C39.6935 18.2107 39.1551 17.9956 38.4506 17.9956C37.6662 17.9956 37.0414 18.2443 36.5761 18.7416C36.1108 19.2255 35.8782 19.9513 35.8782 20.9191V26.2822H32.7675V11.322H35.8782V16.5641C36.2903 16.1475 36.7888 15.8316 37.3738 15.6165C37.9587 15.388 38.5968 15.2738 39.2881 15.2738Z" fill="#36A9E1"/>
<path d="M57.0082 15.4351L52.1626 26.9475C51.6707 28.1976 51.0592 29.078 50.328 29.5888C49.6102 30.0995 48.7394 30.3549 47.7158 30.3549C47.1575 30.3549 46.6058 30.2675 46.0607 30.0928C45.5157 29.9181 45.0703 29.6761 44.7247 29.367L45.8613 27.129C46.1006 27.3441 46.3731 27.5121 46.6789 27.6331C46.9979 27.754 47.3104 27.8145 47.6161 27.8145C48.0415 27.8145 48.3871 27.707 48.653 27.4919C48.9189 27.2903 49.1582 26.9475 49.3709 26.4637L49.4108 26.3628L44.7646 15.4351H47.975L50.9861 22.7942L54.0171 15.4351H57.0082Z" fill="#36A9E1"/>
<path d="M64.6187 15.2738C65.6157 15.2738 66.5197 15.509 67.3306 15.9794C68.1548 16.4364 68.7996 17.0883 69.2649 17.9351C69.7301 18.7685 69.9628 19.743 69.9628 20.8586C69.9628 21.9743 69.7301 22.9555 69.2649 23.8023C68.7996 24.6356 68.1548 25.2875 67.3306 25.758C66.5197 26.215 65.6157 26.4435 64.6187 26.4435C63.2494 26.4435 62.1726 26.0067 61.3883 25.133V30.1936H58.2775V15.4351H61.2487V16.6851C62.0197 15.7442 63.1431 15.2738 64.6187 15.2738ZM64.0803 23.8628C64.8779 23.8628 65.5293 23.5939 66.0345 23.0563C66.5529 22.5052 66.8121 21.7726 66.8121 20.8586C66.8121 19.9446 66.5529 19.2188 66.0345 18.6811C65.5293 18.13 64.8779 17.8545 64.0803 17.8545C63.2826 17.8545 62.6246 18.13 62.1061 18.6811C61.601 19.2188 61.3484 19.9446 61.3484 20.8586C61.3484 21.7726 61.601 22.5052 62.1061 23.0563C62.6246 23.5939 63.2826 23.8628 64.0803 23.8628Z" fill="#36A9E1"/>
<path d="M82.5539 20.899C82.5539 20.9393 82.534 21.2215 82.4941 21.7458H74.3782C74.5245 22.4178 74.8701 22.9488 75.4152 23.3386C75.9602 23.7283 76.6382 23.9232 77.4491 23.9232C78.0074 23.9232 78.4993 23.8426 78.9247 23.6813C79.3634 23.5066 79.7689 23.2377 80.1411 22.8748L81.7962 24.6894C80.7858 25.8588 79.3102 26.4435 77.3693 26.4435C76.1596 26.4435 75.0895 26.2083 74.1589 25.7378C73.2283 25.2539 72.5105 24.5886 72.0053 23.7418C71.5001 22.895 71.2475 21.9339 71.2475 20.8586C71.2475 19.7968 71.4935 18.8424 71.9854 17.9956C72.4905 17.1354 73.1751 16.47 74.0392 15.9996C74.9166 15.5157 75.8937 15.2738 76.9705 15.2738C78.0207 15.2738 78.9712 15.5023 79.822 15.9593C80.6729 16.4163 81.3375 17.0749 81.8161 17.9351C82.308 18.7819 82.5539 19.7699 82.5539 20.899ZM76.9905 17.6529C76.2859 17.6529 75.6943 17.8545 75.2157 18.2577C74.7372 18.661 74.4447 19.2121 74.3384 19.911H79.6226C79.5163 19.2255 79.2238 18.6811 78.7452 18.2779C78.2667 17.8612 77.6817 17.6529 76.9905 17.6529Z" fill="#36A9E1"/>
<path d="M95.4328 15.4351V26.2822H92.4816V24.9918C92.0695 25.4623 91.5776 25.8252 91.006 26.0806C90.4343 26.3225 89.8162 26.4435 89.1515 26.4435C87.7423 26.4435 86.6257 26.0335 85.8014 25.2136C84.9772 24.3937 84.5651 23.1773 84.5651 21.5643V15.4351H87.6759V21.1006C87.6759 22.8479 88.4004 23.7216 89.8494 23.7216C90.5939 23.7216 91.1921 23.4797 91.6441 22.9958C92.0961 22.4985 92.3221 21.7659 92.3221 20.7981V15.4351H95.4328Z" fill="#36A9E1"/>
<path d="M104.656 15.2738C105.653 15.2738 106.557 15.509 107.368 15.9794C108.192 16.4364 108.837 17.0883 109.302 17.9351C109.767 18.7685 110 19.743 110 20.8586C110 21.9743 109.767 22.9555 109.302 23.8023C108.837 24.6356 108.192 25.2875 107.368 25.758C106.557 26.215 105.653 26.4435 104.656 26.4435C103.287 26.4435 102.21 26.0067 101.425 25.133V30.1936H98.3147V15.4351H101.286V16.6851C102.057 15.7442 103.18 15.2738 104.656 15.2738ZM104.117 23.8628C104.915 23.8628 105.566 23.5939 106.072 23.0563C106.59 22.5052 106.849 21.7726 106.849 20.8586C106.849 19.9446 106.59 19.2188 106.072 18.6811C105.566 18.13 104.915 17.8545 104.117 17.8545C103.32 17.8545 102.662 18.13 102.143 18.6811C101.638 19.2188 101.386 19.9446 101.386 20.8586C101.386 21.7726 101.638 22.5052 102.143 23.0563C102.662 23.5939 103.32 23.8628 104.117 23.8628Z" fill="#36A9E1"/>
<path d="M8.58635 32C3.84454 32 0 27.5579 0 22.078V9.922C0 4.4421 3.84454 0 8.58635 0V11.7182V32Z" fill="#36A9E1"/>
<path d="M17.0768 8.8103C21.7654 8.8103 24.7792 11.5301 25.5663 16.2832V24.8074C25.5663 28.7781 21.7654 31.9972 17.0768 31.9972V23.5066V8.8103Z" fill="#36A9E1"/>
<path d="M25.5663 16.2833C25.1001 7.14566 15.0287 5.34271 8.5863 11.7644V26.6181C11.2981 17.9317 17.0768 15.713 25.5663 16.2833Z" fill="url(#paint0_linear_131_2401)"/>
<defs>
<linearGradient id="paint0_linear_131_2401" x1="4.4355" y1="17.2891" x2="32.4606" y2="17.2724" gradientUnits="userSpaceOnUse">
<stop offset="0.0832" stop-color="#FFED00"/>
<stop offset="0.2568" stop-color="#B2EB52"/>
<stop offset="0.4139" stop-color="#73EA94"/>
<stop offset="0.5447" stop-color="#46E9C4"/>
<stop offset="0.6441" stop-color="#2AE8E2"/>
<stop offset="0.7005" stop-color="#20E8ED"/>
</linearGradient>
</defs>
</svg>
